<?xml version="1.0" standalone="no"?>
<!DOCTYPE svg PUBLIC "-//W3C//DTD SVG 20010904//EN"
 "http://www.w3.org/TR/2001/REC-SVG-20010904/DTD/svg10.dtd">
<svg version="1.0" xmlns="http://www.w3.org/2000/svg"
 width="3600.000000pt" height="2042.000000pt" viewBox="0 0 3600.000000 2042.000000"
 preserveAspectRatio="xMidYMid meet">

<g transform="translate(0.000000,2042.000000) scale(0.100000,-0.100000)"
fill="#000000" stroke="none">
<path d="M0 10215 l0 -10205 18000 0 18000 0 0 10205 0 10205 -18000 0 -18000
0 0 -10205z m15567 7190 c220 -29 361 -60 533 -120 661 -231 1082 -771 1224
-1570 33 -187 48 -367 53 -652 l6 -293 -701 0 -700 0 -5 298 c-3 218 -9 322
-22 392 -69 385 -252 571 -602 612 -197 23 -399 -18 -533 -107 -87 -58 -149
-132 -201 -242 -78 -163 -105 -337 -96 -632 9 -298 50 -468 177 -726 133 -272
293 -479 635 -821 132 -132 332 -321 445 -420 227 -200 545 -510 696 -679 679
-762 934 -1424 911 -2365 -12 -475 -91 -841 -257 -1185 -347 -720 -1051 -1082
-2044 -1052 -110 4 -253 13 -316 22 -382 53 -723 183 -979 374 -347 258 -580
634 -701 1126 -75 308 -90 472 -90 1003 l0 412 700 0 700 0 0 -419 c0 -243 4
-452 11 -496 42 -304 169 -505 379 -599 109 -49 234 -69 400 -63 86 3 169 12
205 21 348 94 515 378 515 876 0 594 -229 1042 -840 1649 -80 79 -219 210
-310 290 -839 744 -1239 1222 -1479 1771 -171 393 -241 756 -241 1257 0 442
39 720 147 1043 133 401 362 721 676 946 98 69 323 185 446 229 158 55 395
106 576 124 158 15 552 13 682 -4z m5200 -13 c494 -78 872 -262 1161 -566 263
-277 445 -671 522 -1131 44 -264 50 -385 50 -980 l0 -565 -699 0 -700 0 -4
623 c-3 588 -4 627 -24 714 -69 300 -210 473 -449 551 -203 66 -492 47 -667
-45 -173 -91 -278 -243 -340 -491 l-21 -87 -3 -2735 c-3 -2475 -2 -2745 12
-2839 32 -202 90 -333 198 -447 77 -82 160 -130 282 -166 70 -20 102 -23 255
-23 199 0 263 12 390 74 145 69 264 221 319 406 49 164 51 205 51 1208 l0 937
-335 0 -335 0 0 670 0 670 1035 0 1036 0 -4 -1667 c-3 -1499 -5 -1679 -20
-1778 -72 -470 -177 -774 -365 -1056 -284 -425 -720 -691 -1292 -788 -356 -61
-829 -51 -1160 24 -921 207 -1440 863 -1539 1945 -15 157 -15 5407 -1 5575 45
525 211 983 470 1300 31 38 102 113 157 165 266 254 600 414 1028 490 181 33
276 39 575 35 228 -2 312 -7 417 -23z m5103 3 c685 -104 1178 -440 1452 -990
192 -386 278 -823 278 -1417 l0 -218 -699 0 -699 0 -5 303 c-5 324 -15 413
-63 557 -52 155 -145 281 -257 348 -218 131 -581 133 -813 5 -167 -92 -284
-315 -315 -603 -17 -154 -6 -458 21 -585 75 -356 241 -658 561 -1020 128 -146
415 -426 619 -605 1138 -1000 1572 -1709 1651 -2695 15 -186 6 -594 -16 -755
-97 -714 -372 -1215 -837 -1528 -259 -173 -558 -278 -958 -333 -127 -18 -610
-18 -750 -1 -388 49 -743 177 -1000 359 -123 88 -317 282 -403 403 -138 195
-267 491 -332 763 -68 283 -85 482 -85 990 l0 407 700 0 700 0 0 -417 c0 -454
7 -547 56 -698 98 -311 328 -465 694 -465 515 1 760 291 760 900 -1 502 -167
903 -559 1350 -201 229 -429 453 -686 675 -179 154 -484 448 -640 616 -314
337 -521 623 -679 939 -145 289 -229 556 -278 880 -21 141 -23 187 -23 520 1
384 7 458 56 710 189 954 811 1521 1779 1620 144 15 638 5 770 -15z m5030 -85
c516 -29 896 -135 1197 -336 223 -148 399 -348 518 -589 138 -278 206 -572
236 -1020 15 -232 6 -778 -16 -965 -77 -644 -308 -1066 -735 -1343 -47 -30
-109 -66 -137 -81 -29 -14 -53 -30 -53 -35 0 -5 56 -36 124 -69 274 -132 473
-302 628 -537 165 -248 260 -529 315 -930 16 -115 18 -215 18 -855 0 -708 -1
-728 -23 -870 -44 -281 -106 -489 -207 -695 -169 -348 -403 -592 -740 -771
-215 -114 -438 -184 -760 -237 -128 -21 -153 -21 -1472 -24 l-1343 -4 0 4686
0 4685 1138 0 c625 0 1216 -5 1312 -10z m-23512 -3105 c285 -30 575 -89 822
-167 243 -77 587 -230 806 -359 577 -339 1117 -877 1439 -1434 281 -485 445
-974 522 -1550 25 -190 25 -754 0 -950 -80 -625 -286 -1190 -624 -1708 -668
-1028 -1775 -1694 -2993 -1802 -984 -87 -1953 184 -2735 765 -419 311 -794
721 -1054 1153 -290 481 -471 1005 -547 1587 -21 165 -30 644 -15 818 101
1142 670 2168 1586 2862 552 419 1241 696 1920 774 77 9 154 18 170 20 95 10
570 4 703 -9z m6696 -7397 c169 -26 305 -94 421 -212 159 -160 223 -347 241
-698 l7 -138 -286 0 -285 0 -4 153 c-4 125 -8 162 -26 207 -45 113 -124 163
-259 164 -71 0 -89 -4 -140 -30 -46 -24 -64 -40 -90 -83 -45 -75 -57 -143 -50
-286 12 -268 114 -425 507 -783 281 -256 412 -413 509 -615 95 -196 128 -365
118 -607 -18 -457 -216 -741 -588 -842 -75 -20 -106 -22 -289 -22 -235 0 -302
13 -445 83 -146 72 -246 171 -319 317 -80 160 -106 297 -106 572 l0 192 279 0
279 0 4 -202 c4 -181 6 -209 26 -260 26 -66 89 -129 148 -149 62 -21 200 -17
254 7 127 58 183 201 159 409 -27 243 -135 403 -491 727 -402 367 -562 601
-625 915 -25 123 -24 415 1 531 38 177 91 296 183 407 86 105 247 199 398 234
128 30 315 33 469 9z m7896 -8 c191 -39 367 -152 463 -298 122 -183 157 -347
157 -729 l0 -253 -279 0 -279 0 -4 268 c-3 244 -6 271 -25 320 -31 78 -66 117
-130 148 -48 24 -69 28 -137 28 -174 -1 -267 -86 -296 -270 -7 -47 -10 -412
-8 -1144 3 -981 5 -1079 20 -1125 26 -77 71 -130 136 -162 50 -24 68 -28 147
-27 108 1 166 24 220 86 68 80 69 87 73 541 l3 407 -130 0 -131 0 0 270 0 270
410 0 411 0 -3 -707 -3 -708 -28 -100 c-31 -115 -99 -260 -154 -325 -100 -121
-237 -207 -398 -252 -71 -19 -104 -22 -290 -22 -241 0 -304 12 -455 86 -69 34
-102 59 -176 132 -77 77 -98 106 -137 186 -49 100 -79 204 -96 333 -7 52 -11
456 -11 1181 0 1182 0 1175 51 1341 96 315 328 500 680 545 102 12 285 3 399
-20z m-3900 -1885 l0 -1865 -300 0 -300 0 0 1865 0 1865 300 0 300 0 0 -1865z"/>
<path d="M29930 14736 l0 -1236 288 0 c158 0 337 5 397 10 445 41 664 246 741
690 21 124 31 727 15 951 -33 475 -176 703 -496 791 -75 21 -104 22 -512 26
l-433 3 0 -1235z"/>
<path d="M29930 10725 l0 -1435 448 0 c258 0 485 5 537 11 350 42 532 238 590
637 23 157 16 1346 -8 1487 -27 150 -55 245 -103 344 -86 176 -232 292 -435
346 -141 37 -265 45 -665 45 l-364 0 0 -1435z"/>
<path d="M6710 13878 c-521 -39 -1092 -216 -1540 -478 -440 -257 -849 -630
-1152 -1048 l-77 -107 117 -7 c534 -32 819 -77 1205 -189 862 -249 1659 -769
2231 -1454 121 -145 256 -326 328 -440 51 -81 68 -99 68 -72 0 6 34 91 75 187
364 844 958 1549 1727 2049 81 53 162 105 182 116 l35 20 -91 110 c-50 61
-158 176 -239 257 -765 758 -1796 1138 -2869 1056z m-460 -577 c173 -56 308
-159 366 -277 26 -53 35 -62 83 -84 123 -55 198 -148 208 -259 12 -124 -58
-231 -195 -298 l-76 -38 -654 -3 c-633 -3 -656 -2 -729 18 -105 29 -168 63
-239 132 -83 80 -117 154 -118 258 0 64 4 85 30 140 75 158 271 270 472 270
57 0 69 4 111 34 143 104 299 148 511 142 118 -3 147 -8 230 -35z m2050 -331
c122 -20 249 -70 340 -135 40 -28 57 -33 133 -39 105 -9 182 -28 262 -65 176
-82 281 -243 262 -403 -20 -165 -182 -315 -394 -365 -71 -16 -135 -18 -733
-18 -725 0 -708 -1 -826 66 -108 61 -164 151 -164 264 0 78 18 128 66 184 35
41 134 107 174 116 24 5 37 20 66 76 64 121 207 234 360 283 133 43 316 57
454 36z"/>
<path d="M5905 13083 c-97 -13 -212 -62 -273 -117 -56 -50 -73 -56 -164 -56
-173 0 -318 -74 -318 -161 0 -48 61 -105 145 -134 l70 -25 595 0 c554 0 598 2
635 19 22 10 46 25 53 34 22 26 -26 63 -105 81 -83 19 -118 50 -133 120 -6 28
-22 68 -37 88 -74 107 -285 175 -468 151z"/>
<path d="M8035 12720 c-139 -22 -254 -84 -315 -170 -11 -16 -25 -52 -30 -82
-13 -70 -48 -102 -127 -118 -64 -13 -133 -52 -133 -75 0 -8 19 -27 42 -42 l42
-28 660 0 c612 0 665 1 713 18 69 24 126 67 147 111 16 34 16 38 0 72 -38 81
-139 125 -299 131 -144 5 -145 5 -207 59 -65 56 -125 87 -207 109 -79 20 -207
27 -286 15z"/>
<path d="M10050 12147 c-19 -11 -105 -66 -190 -122 -804 -528 -1397 -1297
-1715 -2225 l-42 -125 39 -85 c134 -288 230 -557 305 -855 36 -145 93 -439 93
-481 0 -13 3 -24 6 -24 15 0 158 124 278 240 426 415 701 877 841 1415 62 238
91 438 101 703 6 143 10 173 27 205 57 103 209 112 278 16 22 -31 24 -46 28
-164 15 -553 -160 -1186 -472 -1710 -229 -386 -586 -769 -987 -1060 l-55 -39
-1 -246 c0 -256 -17 -478 -49 -672 l-4 -27 53 23 c168 74 503 284 686 431 464
370 840 850 1075 1374 415 925 430 1962 42 2907 -85 207 -267 545 -292 543 -5
0 -26 -10 -45 -22z"/>
<path d="M3685 11786 c-436 -916 -469 -1959 -94 -2921 59 -151 198 -425 293
-576 451 -722 1128 -1261 1926 -1537 261 -89 558 -155 835 -183 151 -16 544
-16 695 0 145 16 348 46 437 67 140 31 198 46 205 53 4 3 -75 49 -175 101
-448 234 -896 535 -1317 887 -618 515 -1154 1164 -1523 1844 -37 68 -47 96
-47 134 0 97 55 156 151 163 61 5 99 -10 135 -50 11 -12 60 -93 108 -178 256
-452 565 -851 980 -1266 520 -520 1064 -916 1744 -1271 90 -47 164 -84 166
-82 2 2 8 42 14 89 51 386 40 869 -29 1275 -223 1321 -1074 2478 -2274 3091
-309 159 -573 259 -894 340 -339 85 -628 123 -1014 131 l-267 6 -55 -117z
m695 -306 c719 -80 1351 -331 1925 -765 178 -135 413 -346 438 -395 23 -45 19
-130 -10 -168 -35 -47 -81 -72 -135 -72 -66 0 -94 17 -205 121 -539 507 -1233
838 -1953 933 -107 14 -323 31 -482 39 -103 5 -158 54 -166 151 -5 67 22 123
77 154 32 19 52 22 186 22 84 0 227 -9 325 -20z"/>
</g>
</svg>
